ICC Cricket World Cup 2011 Official Highlights - DVDRip - 720p - x264 - AC3 - DrC 

Screenshots :
 
http://i.imgur.com/jRS43.jpg
 
http://i.imgur.com/Vuyqa.jpg
 
http://i.imgur.com/Lt5qK.jpg
 
http://i.imgur.com/RWfiT.jpg
 
http://i.imgur.com/PTZvm.jpg
 
http://i.imgur.com/Knkkz.jpg
 
http://i.imgur.com/SXfNe.png
 
http://i.imgur.com/M8i0Y.jpg
 
http://i.imgur.com/ZyfCg.jpg
 
http://i.imgur.com/nALRg.jpg
 
http://i.imgur.com/n7Oc9.jpg


Rip Specs :

General

Format                                   : Matroska
Format version                           : Version 2
File size                                : 2.00 GiB
Duration                                 : 2h 30mn
Overall bit rate mode                    : Variable
Overall bit rate                         : 1 906 Kbps


Video

Format                                   : AVC
Format/Info                              : Advanced Video Codec
Format profile                           : High@L4.1
Format settings, CABAC                   : Yes
Format settings, ReFrames                : 3 frames
Codec ID                                 : V_MPEG4/ISO/AVC
Duration                                 : 2h 30mn
Bit rate mode                            : Variable
Bit rate                                 : 1 648 Kbps
Maximum bit rate                         : 40.0 Mbps
Width                                    : 1 280 pixels
Height                                   : 720 pixels
Display aspect ratio                     : 16:9
Frame rate                               : 23.976 fps
Color space                              : YUV
Chroma subsampling                       : 4:2:0
Bit depth                                : 8 bits
Scan type                                : Progressive
Bits/(Pixel*Frame)                       : 0.075
Stream size                              : 1.69 GiB (85%)

Audio

Format                                   : AC-3
Format/Info                              : Audio Coding 3
Mode extension                           : CM (complete main)
Codec ID                                 : A_AC3
Duration                                 : 2h 30mn
Bit rate mode                            : Constant
Bit rate                                 : 256 Kbps
Channel(s)                               : 2 channels
Channel positions                        : Front: L R
Sampling rate                            : 48.0 KHz
Bit depth                                : 16 bits
Compression mode                         : Lossy
Delay relative to video                  : 8ms
Stream size                              : 275 MiB (13%)
